<?xml version="1.0" standalone="no"?>
<!DOCTYPE svg PUBLIC "-//W3C//DTD SVG 20010904//EN"
 "http://www.w3.org/TR/2001/REC-SVG-20010904/DTD/svg10.dtd">
<svg version="1.0" xmlns="http://www.w3.org/2000/svg"
 width="262.000000pt" height="262.000000pt" viewBox="0 0 262.000000 262.000000"
 preserveAspectRatio="xMidYMid meet">
<metadata>
Created by potrace 1.14, written by Peter Selinger 2001-2017
</metadata>
<g transform="translate(0.000000,262.000000) scale(0.100000,-0.100000)"
fill="#000000" stroke="none">
<path d="M980 1996 c-113 -30 -216 -112 -263 -208 l-26 -53 0 123 -1 122 -195
0 -195 0 0 -715 0 -715 195 0 194 0 3 472 c3 467 3 474 25 519 29 57 78 108
123 127 46 19 147 18 196 -3 49 -20 80 -49 107 -100 22 -39 22 -50 25 -527 l3
-488 190 0 189 0 0 473 c0 453 1 474 21 517 25 56 73 107 119 127 20 8 64 15
102 15 91 0 152 -31 193 -97 l30 -48 3 -494 3 -493 194 0 195 0 0 533 c0 488
-2 538 -19 599 -57 207 -220 328 -441 328 -185 0 -353 -93 -425 -236 l-28 -56
-29 63 c-16 34 -40 78 -54 97 -36 46 -121 99 -191 117 -68 18 -180 18 -243 1z"/>
</g>
</svg>
