<?xml version="1.0" encoding="utf-8"?>
<!-- Generator: Adobe Illustrator 25.2.3, SVG Export Plug-In . SVG Version: 6.00 Build 0)  -->
<svg version="1.1" id="Layer_1" xmlns="http://www.w3.org/2000/svg" xmlns:xlink="http://www.w3.org/1999/xlink" x="0px" y="0px"
	 viewBox="0 0 400 400" style="enable-background:new 0 0 400 400;" xml:space="preserve">
<style type="text/css">
	.st0{fill:#262626;}
	.st1{fill-rule:evenodd;clip-rule:evenodd;fill:#FFFFFF;}
</style>
<g>
	<rect x="14" y="13.67" class="st0" width="372.33" height="372.33"/>
	<path class="st1" d="M155.31,207.02h-33.38v35.04h32.85c11.26,0,20.24-3.59,20.24-16.91C175.02,211.84,167.31,207.02,155.31,207.02
		z M150.93,155.77h-29.09v29.96h31.28c9.9,0,17.52-4.38,17.52-15.24c-0.09-12.26-9.46-14.72-19.62-14.72H150.93z M204.15,225.86
		c0,26.02-22.34,37.15-45.6,37.15H95.91V134.13h60.89c24.57,0,41.31,8.76,41.31,32.59c0.24,11.67-6.72,22.29-17.52,26.72
		c15.68,4.47,23.65,16.47,23.65,32.41H204.15z M234.81,142.63h51.86v17.26H234.9L234.81,142.63z M258.03,186.78
		c-16.29,0-21.03,9.11-21.38,16.21h41.88c-2.28-12.7-7.88-16.03-20.41-16.03L258.03,186.78z M236.65,219.72
		c0.7,16.12,8.76,26.28,22.95,26.28c9.26-0.29,17.57-5.78,21.46-14.19h22.6c-7.18,21.9-23.74,33.38-44.94,33.38
		c-29.52,0-48.18-20.06-48.18-48.8c0-27.77,19.71-48.97,48.18-48.97c31.89,0,47.31,23.57,45.47,52.13L236.65,219.72z"/>
</g>
</svg>
