<?xml version="1.0" encoding="utf-8"?>
<!-- Generator: Adobe Illustrator 25.2.3, SVG Export Plug-In . SVG Version: 6.00 Build 0)  -->
<svg version="1.1" id="Layer_1" xmlns="http://www.w3.org/2000/svg" xmlns:xlink="http://www.w3.org/1999/xlink" x="0px" y="0px"
	 viewBox="0 0 400 400" style="enable-background:new 0 0 400 400;" xml:space="preserve">
<style type="text/css">
	.st0{fill:#262626;}
	.st1{fill:#FFFFFF;}
</style>
<g>
	<rect x="13" y="12.67" class="st0" width="374.33" height="374.33"/>
	<path class="st1" d="M293.39,95.02H106.93c-6.4,0-11.58,5.19-11.58,11.58l0,0v186.46c0,6.4,5.19,11.58,11.58,11.58l0,0H207.3
		v-81.16h-27.3v-31.66h27.3v-23.3c0-27.08,16.56-41.84,40.69-41.84c8.16-0.01,16.32,0.4,24.44,1.23v28.32h-16.78
		c-13.21,0-15.68,6.25-15.68,15.41v20.17h31.36l-4.1,31.66h-27.26v81.16h53.42c6.4,0,11.58-5.19,11.58-11.58l0,0V106.61
		C304.98,100.21,299.79,95.02,293.39,95.02L293.39,95.02z"/>
</g>
</svg>
