<?xml version="1.0" encoding="utf-8"?>
<!-- Generator: Adobe Illustrator 25.2.3, SVG Export Plug-In . SVG Version: 6.00 Build 0)  -->
<svg version="1.1" id="Layer_1" xmlns="http://www.w3.org/2000/svg" xmlns:xlink="http://www.w3.org/1999/xlink" x="0px" y="0px"
	 viewBox="0 0 400 400" style="enable-background:new 0 0 400 400;" xml:space="preserve">
<style type="text/css">
	.st0{fill:#262626;}
	.st1{fill:#FFFFFF;}
</style>
<g>
	<rect x="16.77" y="19" class="st0" width="362.23" height="362.23"/>
	<path class="st1" d="M197.89,117.01c27.06,0,30.3,0,41,0.6c6.43,0.06,12.81,1.24,18.84,3.49c8.82,3.43,15.79,10.4,19.22,19.22
		c2.26,6.03,3.44,12.4,3.49,18.84c0.51,10.7,0.6,13.94,0.6,41s0,30.3-0.6,41c-0.06,6.43-1.24,12.81-3.49,18.84
		c-3.43,8.82-10.4,15.79-19.22,19.22c-6.03,2.26-12.4,3.44-18.84,3.49c-10.7,0.51-13.89,0.6-41,0.6s-30.3,0-41-0.6
		c-6.43-0.06-12.81-1.24-18.84-3.49c-8.82-3.43-15.79-10.4-19.22-19.22c-2.26-6.03-3.44-12.4-3.49-18.84
		c-0.51-10.7-0.6-13.94-0.6-41s0-30.3,0.6-41c0.06-6.43,1.24-12.81,3.49-18.84c3.43-8.82,10.4-15.79,19.22-19.22
		c6.03-2.26,12.4-3.44,18.84-3.49C167.59,117.1,170.83,117.01,197.89,117.01 M197.89,98.73c-27.53,0-30.98,0-41.81,0.6
		c-8.42,0.17-16.75,1.77-24.63,4.73c-13.74,5.23-24.6,16.09-29.83,29.83c-2.96,7.88-4.56,16.21-4.73,24.63
		c-0.47,10.82-0.6,14.28-0.6,41.8c0,27.53,0,30.98,0.6,41.81c0.17,8.42,1.77,16.75,4.73,24.63c5.23,13.74,16.09,24.6,29.83,29.83
		c7.88,2.96,16.21,4.56,24.63,4.73c10.82,0.47,14.28,0.6,41.81,0.6s30.98,0,41.81-0.6c8.42-0.17,16.75-1.77,24.63-4.73
		c13.74-5.23,24.6-16.09,29.83-29.83c2.96-7.88,4.56-16.21,4.73-24.63c0.47-10.82,0.6-14.28,0.6-41.81c0-27.53,0-30.98-0.6-41.8
		c-0.17-8.42-1.77-16.75-4.73-24.63c-5.23-13.74-16.09-24.6-29.83-29.83c-7.88-2.96-16.21-4.56-24.63-4.73
		C228.87,98.86,225.42,98.73,197.89,98.73z"/>
	<path class="st1" d="M197.89,148.04c-28.76,0-52.08,23.32-52.08,52.08c0,28.76,23.31,52.08,52.08,52.08
		c28.76,0,52.08-23.31,52.08-52.08v0C249.96,171.35,226.65,148.04,197.89,148.04z M197.89,233.91c-18.66,0-33.79-15.13-33.79-33.79
		c0-18.66,15.13-33.79,33.79-33.79c18.66,0,33.79,15.13,33.79,33.79l0,0C231.68,218.78,216.55,233.91,197.89,233.91L197.89,233.91z"
		/>
	<circle class="st1" cx="252.01" cy="145.99" r="12.19"/>
</g>
</svg>
