<?xml version="1.0" encoding="utf-8"?>
<!-- Generator: Adobe Illustrator 25.2.3, SVG Export Plug-In . SVG Version: 6.00 Build 0)  -->
<svg version="1.1" id="Layer_1" xmlns="http://www.w3.org/2000/svg" xmlns:xlink="http://www.w3.org/1999/xlink" x="0px" y="0px"
	 viewBox="0 0 400 400" style="enable-background:new 0 0 400 400;" xml:space="preserve">
<style type="text/css">
	.st0{fill:#262626;}
	.st1{fill:#FFFFFF;}
</style>
<g>
	<rect x="11.62" y="11.29" class="st0" width="377.71" height="377.71"/>
	<g>
		<path class="st1" d="M97.42,163.97h43.86v141.04H97.42V163.97z M119.38,93.9c14.04,0,25.42,11.38,25.42,25.42
			c0,14.04-11.38,25.42-25.42,25.42c-14.04,0-25.42-11.38-25.42-25.42v0C93.96,105.28,105.34,93.9,119.38,93.9"/>
		<path class="st1" d="M168.79,163.97h41.99v19.29h0.8c8.57-14.64,24.5-23.39,41.46-22.75c44.44,0,52.57,29.19,52.57,67.14v77.36
			h-43.81v-68.57c0-16.35-0.27-37.42-22.75-37.42s-26.31,17.77-26.31,36.22v69.77h-43.77L168.79,163.97z"/>
	</g>
</g>
</svg>
