<?xml version="1.0" encoding="utf-8"?>
<!-- Generator: Adobe Illustrator 25.2.3, SVG Export Plug-In . SVG Version: 6.00 Build 0)  -->
<svg version="1.1" id="Layer_1" xmlns="http://www.w3.org/2000/svg" xmlns:xlink="http://www.w3.org/1999/xlink" x="0px" y="0px"
	 viewBox="0 0 400 400" style="enable-background:new 0 0 400 400;" xml:space="preserve">
<style type="text/css">
	.st0{fill:#262626;}
	.st1{fill:#FFFFFF;}
</style>
<g>
	<rect x="21" y="24" class="st0" width="354.58" height="354.58"/>
	<path class="st1" d="M297.57,139.72c-7.44,3.28-15.33,5.44-23.4,6.42c8.52-5.1,14.89-13.12,17.94-22.57
		c-8.01,4.75-16.77,8.09-25.91,9.89c-15.41-16.4-41.21-17.21-57.61-1.79c-8.19,7.69-12.84,18.42-12.85,29.66
		c0,3.13,0.35,6.25,1.04,9.3c-32.73-1.6-63.26-16.98-84.01-42.34c-10.74,18.55-5.27,42.26,12.51,54.23
		c-6.48-0.2-12.81-1.95-18.48-5.09v0.54c0.01,19.39,13.69,36.09,32.7,39.92c-6,1.61-12.29,1.85-18.4,0.71
		c5.32,16.6,20.62,27.97,38.04,28.28c-14.43,11.29-32.24,17.4-50.56,17.35c-3.25,0-6.49-0.2-9.72-0.58
		c18.65,12.02,40.38,18.38,62.57,18.31c75.09,0,115.93-62.07,115.93-115.88c0-1.79,0-3.55,0-5.3
		C285.31,155.01,292.14,147.88,297.57,139.72z"/>
</g>
</svg>
